<?xml version="1.0" encoding="utf-8"?>
<!-- Generator: Adobe Illustrator 25.2.1, SVG Export Plug-In . SVG Version: 6.00 Build 0)  -->
<svg version="1.1" id="Capa_1" xmlns="http://www.w3.org/2000/svg" xmlns:xlink="http://www.w3.org/1999/xlink" x="0px" y="0px"
	 viewBox="0 0 486.8 486.8" style="enable-background:new 0 0 486.8 486.8;" xml:space="preserve">
<g>
	<path d="M225.4,18c88.9,0,167.4,51.3,203.9,129.1l25.4-52.8l32.1,15.4L434,219.3l-109.6-52.8l15.5-32.1l57.1,27.5
		C366.2,96.6,300.2,53.6,225.4,53.6c-104.7,0-189.8,85.2-189.8,189.8s85.1,189.8,189.8,189.8c61.6,0,119.7-30.1,155.2-80.5
		l29.1,20.5c-42.2,59.9-111.1,95.6-184.3,95.6C101.1,468.8,0,367.7,0,243.4S101.1,18,225.4,18z"/>
</g>
</svg>
