<?xml version="1.0" encoding="utf-8"?>
<!-- Generator: Adobe Illustrator 25.2.1, SVG Export Plug-In . SVG Version: 6.00 Build 0)  -->
<svg version="1.1" id="Capa_1" xmlns="http://www.w3.org/2000/svg" xmlns:xlink="http://www.w3.org/1999/xlink" x="0px" y="0px"
	 viewBox="0 0 512 512" style="enable-background:new 0 0 512 512;" xml:space="preserve">
<style type="text/css">
	.st0{fill:#FFFFFF;}
</style>
<g>
	<g>
		<path class="st0" d="M372.9,204.2l-24.3,16.2c15.1,22.6,15.1,51.8,0,74.4l24.3,16.2C394.5,278.5,394.5,236.6,372.9,204.2z"/>
	</g>
</g>
<g>
	<g>
		<path class="st0" d="M468.8,139.5l-6.5-9.8L438,145.9l6.5,9.8c41.3,61.9,41.3,141.9,0,203.8l-6.5,9.8l24.3,16.2l6.5-9.8
			C516.7,303.9,516.7,211.2,468.8,139.5z"/>
	</g>
</g>
<g>
	<g>
		<path class="st0" d="M421.3,171.8l-6.5-9.8l-24.3,16.2l6.5,9.8c28.2,42.3,28.2,96.8,0,139.1l-6.5,9.8l24.3,16.2l6.5-9.8
			C456.1,291.2,456.1,223.9,421.3,171.8z"/>
	</g>
</g>
<g>
	<g>
		<rect x="7.3" y="155.5" class="st0" width="116.6" height="203.8"/>
	</g>
</g>
<g>
	<g>
		<polygon class="st0" points="153,139.8 153,374.9 327.9,512 327.9,0 		"/>
	</g>
</g>
</svg>
