<?xml version="1.0" encoding="utf-8"?>
<!-- Generator: Adobe Illustrator 24.3.0, SVG Export Plug-In . SVG Version: 6.00 Build 0)  -->
<svg version="1.1" id="레이어_1" xmlns="http://www.w3.org/2000/svg" xmlns:xlink="http://www.w3.org/1999/xlink" x="0px"
	 y="0px" viewBox="0 0 24 24" style="enable-background:new 0 0 24 24;" xml:space="preserve">
<style type="text/css">
	.st0{fill:none;}
	.st1{fill:#212121;}
</style>
<path class="st0" d="M0,0h24v24H0V0z"/>
<path class="st1" d="M12,0C5.4,0,0,5.4,0,12s5.4,12,12,12s12-5.4,12-12S18.6,0,12,0z M13.2,20.4h-2.4V18h2.4
	C13.2,18,13.2,20.4,13.2,20.4z M15.7,11.1l-1.1,1.1c-0.9,0.9-1.4,1.6-1.4,3.4h-2.4V15c0-1.3,0.5-2.5,1.4-3.4l1.5-1.5
	c0.4-0.4,0.7-1,0.7-1.7C14.4,7.1,13.3,6,12,6S9.6,7.1,9.6,8.4H7.2c0-2.7,2.1-4.8,4.8-4.8s4.8,2.1,4.8,4.8
	C16.8,9.5,16.4,10.4,15.7,11.1z"/>
</svg>
